<svg width="500" height="500" viewBox="0 0 500 500" fill="none" xmlns="http://www.w3.org/2000/svg">
<path d="M33 400.978V98H86.4962V400.978H33ZM128.911 286.929L204.57 400.978H142.285L93.7564 317.649L128.911 286.929ZM70.4474 354.514L65.0977 303.441L165.976 228.945L198.456 257.745L70.4474 354.514Z" fill="#121212"/>
<path d="M295.857 400.978C282.101 400.978 184.318 400.978 159.862 400.978C159.862 390.994 159.862 377.17 159.862 365.266C208.773 366.418 251.159 366.418 291.272 366.418C295.602 366.418 299.423 366.034 302.735 365.266C306.301 364.242 309.104 362.834 311.142 361.042C313.18 358.994 314.198 356.434 314.198 353.362C314.198 349.01 312.415 347.09 308.849 344.53C305.537 341.97 301.207 339.922 295.857 338.386C290.507 336.594 284.776 334.802 278.662 333.01C263.377 328.146 252.296 321.106 245.418 311.889C238.794 302.417 235.483 292.177 235.483 281.169C235.483 272.721 237.648 264.273 241.979 255.825C246.564 247.121 253.697 239.953 263.377 234.321C273.312 228.433 286.049 225.489 301.589 225.489C324.343 225.489 386.075 225.489 415.116 225.489V262.353C399.067 262.353 339.457 262.353 299.678 262.353C296.621 263.633 294.201 265.297 292.418 267.345C290.635 269.393 289.743 271.569 289.743 273.873C289.488 278.737 291.272 282.577 295.093 285.393C299.169 288.209 304.263 290.385 310.377 291.921C316.491 293.457 322.478 295.249 328.337 297.297C336.489 299.857 343.494 303.313 349.353 307.665C355.212 312.017 359.67 317.265 362.727 323.41C366.039 329.298 367.695 336.466 367.695 344.914C367.695 355.154 365.02 364.882 359.67 374.098C354.575 383.058 346.678 390.354 335.979 395.986C325.535 401.618 312.161 400.978 295.857 400.978Z" fill="#121212"/>
<path d="M412.504 98H466V400.978H412.504V98Z" fill="#121212"/>
</svg>
